<svg xmlns="http://www.w3.org/2000/svg" width="24" height="24" viewBox="0 0 24 24">
    <g fill="none" fill-rule="evenodd" transform="translate(-1 -2)">
        <path fill-rule="nonzero" d="M2 3H24V25H2z"/>
        <path fill="#7564E3" d="M13 5.75c3.098 0 5.81 1.496 8.117 3.956.792.846 1.48 1.748 2.063 2.65.353.546.594.976.723 1.234.13.258.13.562 0 .82-.129.258-.37.688-.723 1.233-.583.903-1.271 1.805-2.063 2.65-2.307 2.46-5.019 3.957-8.117 3.957-3.098 0-5.81-1.496-8.117-3.956-.792-.846-1.48-1.748-2.063-2.65-.353-.546-.594-.976-.723-1.234-.13-.258-.13-.562 0-.82.129-.258.37-.688.723-1.233.583-.903 1.271-1.805 2.063-2.65C7.19 7.246 9.902 5.75 13 5.75zm0 4.583c-2.025 0-3.667 1.642-3.667 3.667s1.642 3.667 3.667 3.667 3.667-1.642 3.667-3.667-1.642-3.667-3.667-3.667zm0 1.834c1.013 0 1.833.82 1.833 1.833s-.82 1.833-1.833 1.833-1.833-.82-1.833-1.833.82-1.833 1.833-1.833z"/>
        <rect width="10" height="10" x="8" y="9" fill="#FFF" rx="5"/>
        <rect width="5" height="29" x="10.646" y="-.854" fill="#7265E3" stroke="#FFF" rx="2.5" transform="rotate(45 13.146 13.646)"/>
    </g>
</svg>
