<svg xmlns="http://www.w3.org/2000/svg" width="24" height="24" viewBox="0 0 24 24">
    <g fill="none" fill-rule="evenodd">
        <path fill-rule="nonzero" d="M0 0H21.934V22H0z" transform="translate(.997 1)"/>
        <path fill="#7564E3" d="M10.967 2.75c3.089 0 5.793 1.496 8.092 3.956.79.846 1.476 1.748 2.057 2.65.352.546.593.976.721 1.234.129.258.129.562 0 .82-.128.258-.37.688-.72 1.233-.582.903-1.268 1.805-2.058 2.65-2.3 2.46-5.003 3.957-8.092 3.957-3.089 0-5.793-1.496-8.092-3.956-.79-.846-1.476-1.748-2.058-2.65-.35-.546-.592-.976-.72-1.234-.13-.258-.13-.562 0-.82.128-.258.37-.688.72-1.233.582-.903 1.268-1.805 2.058-2.65 2.299-2.46 5.003-3.957 8.092-3.957zm0 4.583C8.947 7.333 7.31 8.975 7.31 11s1.637 3.667 3.656 3.667 3.655-1.642 3.655-3.667-1.636-3.667-3.655-3.667zm0 1.834c1.01 0 1.828.82 1.828 1.833s-.819 1.833-1.828 1.833c-1.01 0-1.828-.82-1.828-1.833s.818-1.833 1.828-1.833z" transform="translate(.997 1)"/>
    </g>
</svg>
