<svg width="24" height="24" viewBox="0 0 24 24" fill="none" xmlns="http://www.w3.org/2000/svg">
<path fill-rule="evenodd" clip-rule="evenodd" d="M6.17424 11H21.05C21.5747 11 22 11.4477 22 12C22 12.5523 21.5747 13 21.05 13H6.17421L10.7593 18.3492C11.1187 18.7686 11.0701 19.3999 10.6508 19.7593C10.2315 20.1187 9.60017 20.0701 9.24074 19.6508L3.34014 12.7668C3.13221 12.5833 3 12.3079 3 12C3 11.692 3.13226 11.4166 3.34026 11.2331L9.24074 4.34923C9.60017 3.9299 10.2315 3.88134 10.6508 4.24076C11.0701 4.60018 11.1187 5.23148 10.7593 5.65081L6.17424 11Z" fill="#2D3142"/>
</svg>
